<?xml version="1.0" standalone="no"?>
<!DOCTYPE svg PUBLIC "-//W3C//DTD SVG 20010904//EN"
 "http://www.w3.org/TR/2001/REC-SVG-20010904/DTD/svg10.dtd">
<svg version="1.0" xmlns="http://www.w3.org/2000/svg"
 width="212.000000pt" height="120.000000pt" viewBox="0 0 212.000000 120.000000"
 preserveAspectRatio="xMidYMid meet">
<metadata>
Created by potrace 1.13, written by Peter Selinger 2001-2015
</metadata>
<g transform="translate(0.000000,120.000000) scale(0.100000,-0.100000)"
fill="#000000" stroke="none">
<path d="M22 1138 c3 -21 9 -23 88 -28 l85 -5 3 -158 3 -158 27 3 27 3 3 157
3 157 87 3 c79 3 87 5 87 23 0 19 -8 20 -208 23 l-208 2 3 -22z"/>
<path d="M905 1086 c-5 -3 -27 -7 -49 -11 -21 -3 -49 -17 -62 -30 -21 -21 -24
-33 -24 -102 0 -125 22 -141 219 -152 111 -6 114 -7 76 -19 -22 -6 -55 -12
-73 -12 -29 0 -33 -3 -30 -22 3 -21 8 -23 68 -22 75 1 126 23 140 60 6 14 10
71 10 127 0 115 -10 140 -66 163 -32 13 -188 28 -209 20z m179 -66 c25 -9 26
-13 26 -90 l0 -80 -118 0 c-150 0 -162 7 -162 90 0 84 9 90 130 90 54 0 110
-4 124 -10z"/>
<path d="M1449 1080 c-6 -4 -9 -16 -7 -26 2 -15 13 -20 48 -22 61 -3 90 -10
90 -22 0 -6 -54 -10 -135 -10 -188 0 -225 -18 -225 -108 0 -76 56 -102 220
-102 185 0 210 17 210 143 0 88 -8 111 -48 131 -31 15 -135 26 -153 16z m139
-162 c2 -15 -2 -36 -8 -48 -10 -19 -20 -20 -140 -20 -104 0 -132 3 -144 16
-19 19 -20 35 -3 56 19 25 34 27 167 25 l125 -2 3 -27z"/>
<path d="M1786 1080 c-82 -15 -91 -31 -91 -162 0 -91 3 -113 16 -121 9 -6 24
-7 33 -4 13 5 16 24 16 116 0 90 3 110 16 115 20 8 218 8 238 0 13 -5 16 -25
16 -115 0 -92 3 -111 16 -116 38 -14 49 9 52 113 2 111 -7 141 -51 162 -35 17
-195 24 -261 12z"/>
<path d="M522 1058 c3 -20 10 -23 48 -26 60 -3 90 -10 90 -21 0 -5 -67 -11
-149 -13 -133 -3 -153 -5 -178 -24 -23 -18 -29 -30 -31 -72 -5 -92 48 -116
243 -110 128 4 155 12 174 55 14 30 14 143 1 178 -13 35 -65 55 -140 55 -58 0
-61 -1 -58 -22z m136 -155 l-3 -48 -134 -3 c-148 -3 -164 2 -159 52 4 39 21
44 176 45 l123 1 -3 -47z"/>
<path d="M162 448 c3 -21 9 -23 85 -26 l82 -3 3 -157 3 -157 30 0 30 0 3 158
3 157 84 0 c84 0 85 0 85 25 l0 25 -206 0 -205 0 3 -22z"/>
<path d="M547 391 c-21 -4 -50 -17 -65 -28 -25 -19 -27 -26 -30 -109 -3 -84
-1 -91 22 -113 41 -39 180 -58 192 -26 11 27 -16 45 -67 45 -36 0 -54 5 -69
20 -12 12 -18 25 -15 30 4 6 76 10 171 10 l165 0 -3 67 c-3 64 -4 68 -37 87
-25 15 -56 20 -130 22 -53 2 -113 -1 -134 -5z m224 -61 c11 -6 19 -21 19 -35
l0 -25 -140 0 -140 0 0 25 c0 13 8 29 18 34 23 14 218 14 243 1z"/>
<path d="M1119 390 c-6 -4 -9 -16 -7 -26 2 -15 13 -20 48 -22 61 -3 90 -10 90
-22 0 -6 -54 -10 -135 -10 -188 0 -225 -18 -225 -108 0 -76 56 -102 220 -102
185 0 210 17 210 143 0 88 -8 111 -48 131 -31 15 -135 26 -153 16z m139 -162
c2 -15 -2 -36 -8 -48 -10 -19 -20 -20 -138 -20 -141 0 -166 8 -160 50 5 41 40
50 178 48 l125 -3 3 -27z"/>
<path d="M1450 389 c-72 -14 -84 -34 -88 -145 -5 -113 1 -144 27 -144 32 0 40
24 43 131 l3 104 76 3 c54 2 79 -1 87 -11 6 -7 13 -60 14 -118 3 -104 3 -104
28 -104 25 0 25 1 30 108 4 81 9 110 20 117 8 5 42 10 75 10 33 0 67 -5 75
-10 11 -7 16 -36 20 -117 5 -107 5 -108 30 -108 l25 0 3 112 c2 104 1 113 -20
138 -30 34 -94 47 -176 35 -34 -4 -66 -11 -71 -15 -6 -3 -19 -2 -28 3 -28 14
-124 20 -173 11z"/>
</g>
</svg>
