<svg xmlns="http://www.w3.org/2000/svg" width="294.988" height="128.961" viewBox="0 0 294.988 128.961"><path fill="#fff" d="M49.157 101.348L34.44 68.273l-14.414 33.074h-21.24L23.82 50.825 0 0h23.97l12.29 29.738L49.764 0H70.55L47.03 47.033l26.096 54.315h-23.97zM90.645 27.34c-7.218 2.03-13.748-.11-15.672-6.955-1.825-6.492 2.633-11.723 9.852-13.752 7.062-1.984 13.7-.063 15.575 6.604 2.02 7.195-2.85 12.16-9.755 14.102zm-11.91 74.008V36.963l21.24-5.008v69.393h-21.24zM111.045 129.112V15.324l21.392-4.55v10.923c4.55-6.524 10.014-9.56 16.688-9.56 14.566 0 23.82 10.925 23.82 41.116 0 30.496-11.075 49.61-32.467 49.61-2.883 0-5.614-.302-8.042-1.062v22.91l-21.39 4.402zM137.595 26.4c-1.82 0-3.945.454-5.16 1.213v60.84c1.52.758 3.34 1.363 5.615 1.363 8.647 0 12.744-12.743 12.744-32.92 0-21.09-4.55-30.496-13.2-30.496zM196.834 103.018c-5.613 0-15.172-1.67-20.178-4.248l4.55-16.234c4.098 2.883 8.952 4.703 13.656 4.703 6.676 0 10.013-3.642 10.013-9.56 0-4.096-2.428-7.13-6.372-9.71l-6.827-4.552c-7.282-4.703-13.35-11.53-13.35-24.88 0-17.903 14.26-26.552 28.066-26.552 7.434 0 14.716 1.973 18.51 3.642l-4.098 16.08c-3.033-2.274-6.826-4.246-11.227-4.246-5.462 0-10.013 3.186-10.013 9.255 0 5.006 2.73 7.586 6.37 10.014l6.07 4.097c8.495 5.766 14.565 12.138 14.565 24.426 0 16.84-9.71 27.765-29.736 27.765zM270.107 99.527c-3.186 10.62-11.984 29.434-30.95 29.434l-5.462-17.75h8.193c6.068 0 9.254-3.186 10.923-9.862l-23.666-87.692h22.605l11.985 55.073 11.68-55.074h19.573l-24.88 85.87z"/></svg>